<svg width="128" height="128" viewBox="0 0 128 128" fill="none" xmlns="http://www.w3.org/2000/svg">
  <rect width="128" height="128" rx="20" fill="url(#gradient)"/>
  <defs>
    <linearGradient id="gradient" x1="0%" y1="0%" x2="100%" y2="100%">
      <stop offset="0%" style="stop-color:#4285F4;stop-opacity:1" />
      <stop offset="100%" style="stop-color:#3367D6;stop-opacity:1" />
    </linearGradient>
  </defs>
  
  <!-- 主文件夹 -->
  <path d="M32 24C30.8954 24 30 24.8954 30 26V102C30 103.105 30.8954 104 32 104H96C97.1046 104 98 103.105 98 102V48C98 46.8954 97.1046 46 96 46H64L52 24H32Z" fill="white"/>
  
  <!-- 书签图标 -->
  <path d="M42 58H86V62H42V58Z" fill="#E8EAED"/>
  <path d="M42 68H78V72H42V68Z" fill="#E8EAED"/>
  <path d="M42 78H82V82H42V78Z" fill="#E8EAED"/>
  <path d="M42 88H74V92H42V88Z" fill="#E8EAED"/>
  
  <!-- 智能整理图标 -->
  <circle cx="80" cy="72" r="12" fill="#4285F4"/>
  <path d="M74 72L78 76L86 68" stroke="white" stroke-width="3" stroke-linecap="round" stroke-linejoin="round"/>
  
  <!-- 装饰性元素 -->
  <circle cx="20" cy="20" r="3" fill="#34A853" opacity="0.8"/>
  <circle cx="108" cy="108" r="4" fill="#EA4335" opacity="0.6"/>
  <circle cx="108" cy="20" r="2.5" fill="#FBBC04" opacity="0.7"/>
</svg>